<svg xmlns="http://www.w3.org/2000/svg" width="672" height="126" viewBox="0 0 672 126">
  <g id="Trustpilot_ratings_4halfstar-RGB" transform="translate(0 -0.065)">
    <g id="Group_42" data-name="Group 42" transform="translate(0 0.065)">
      <rect id="Rectangle-path" width="126" height="126" fill="#00b67a"/>
      <rect id="Rectangle_62" data-name="Rectangle 62" width="125" height="126" transform="translate(137)" fill="#00b67a"/>
      <rect id="Rectangle_63" data-name="Rectangle 63" width="132" height="126" transform="translate(273)" fill="#00b67a"/>
      <rect id="Rectangle_64" data-name="Rectangle 64" width="126" height="126" transform="translate(410)" fill="#00b67a"/>
      <g id="Half" transform="translate(546.639)">
        <rect id="Rectangle_65" data-name="Rectangle 65" width="65" height="126" transform="translate(60.361)" fill="#dcdce6"/>
        <rect id="Rectangle_66" data-name="Rectangle 66" width="60" height="126" transform="translate(0.361)" fill="#00b67a"/>
      </g>
      <path id="Shape" d="M58.582,79.974l19.2-4.865L85.8,99.83Zm44.182-31.953H68.97L58.582,16.2,48.194,48.021H14.4L41.751,67.745,31.363,99.567,58.713,79.843l16.831-12.1,27.219-19.724Z" transform="translate(4.535 4.93)" fill="#fff"/>
      <path id="Path_37" data-name="Path 37" d="M162.582,79.974l19.2-4.865L189.8,99.83Zm44.182-31.953H172.97L162.582,16.2,152.194,48.021H118.4l27.351,19.724L135.363,99.567l27.351-19.724,16.831-12.1,27.219-19.724Z" transform="translate(37.288 4.93)" fill="#fff"/>
      <path id="Path_38" data-name="Path 38" d="M266.582,79.974l19.2-4.865L293.8,99.83Zm44.182-31.953H276.97L266.582,16.2,256.194,48.021H222.4l27.351,19.724L239.363,99.567l27.351-19.724,16.831-12.1,27.219-19.724Z" transform="translate(70.042 4.93)" fill="#fff"/>
      <path id="Path_39" data-name="Path 39" d="M370.582,79.974l19.2-4.865L397.8,99.83Zm44.182-31.953H380.97L370.582,16.2,360.194,48.021H326.4l27.351,19.724L343.363,99.567l27.351-19.724,16.831-12.1,27.219-19.724Z" transform="translate(102.795 4.93)" fill="#fff"/>
      <path id="Path_40" data-name="Path 40" d="M474.582,79.974l19.2-4.865L501.8,99.83Zm44.182-31.953H484.97L474.582,16.2,464.194,48.021H430.4l27.351,19.724L447.363,99.567l27.351-19.724,16.831-12.1,27.219-19.724Z" transform="translate(135.549 4.93)" fill="#fff"/>
    </g>
  </g>
</svg>
