<svg id="Icon_feather-shopping-cart" data-name="Icon feather-shopping-cart" xmlns="http://www.w3.org/2000/svg" width="35.906" height="34.41" viewBox="0 0 35.906 34.41">
  <path id="Path_1" data-name="Path 1" d="M14.991,31.5A1.5,1.5,0,1,1,13.5,30,1.5,1.5,0,0,1,14.991,31.5Z" transform="translate(-0.03 -0.081)" fill="none" stroke="#fff" stroke-linecap="round" stroke-linejoin="round" stroke-width="3"/>
  <path id="Path_2" data-name="Path 2" d="M31.492,31.5A1.5,1.5,0,1,1,30,30,1.5,1.5,0,0,1,31.492,31.5Z" transform="translate(-0.077 -0.081)" fill="none" stroke="#fff" stroke-linecap="round" stroke-linejoin="round" stroke-width="3"/>
  <path id="Path_3" data-name="Path 3" d="M1.5,1.5H7.483l4.009,20.028a2.991,2.991,0,0,0,2.991,2.408H29.021a2.991,2.991,0,0,0,2.991-2.408L34.406,8.979H8.979" fill="none" stroke="#fff" stroke-linecap="round" stroke-linejoin="round" stroke-width="3"/>
</svg>
