<svg id="Layer_1" data-name="Layer 1" xmlns="http://www.w3.org/2000/svg" viewBox="0 0 545 140"><defs><style>.cls-1{fill:#404040;}.cls-2{fill:#fff;}.cls-3{fill:#ba2424;}</style></defs><rect class="cls-1" x="-0.98" y="-0.87" width="546.96" height="141.73"/><path class="cls-2" d="M75.09,91.88V52.75h5.48L94.65,80l14-27.28h5.53V91.88h-4.7V61.14L96.39,86.29H92.87L79.79,61.19V91.88Z"/><path class="cls-2" d="M155.07,92.55a14,14,0,0,1-7-1.79,12.89,12.89,0,0,1-4.95-5.06A15.57,15.57,0,0,1,141.27,78a15.38,15.38,0,0,1,1.84-7.69,13.1,13.1,0,0,1,5-5.06,14.8,14.8,0,0,1,14.11,0,13,13,0,0,1,4.94,5.06A15.59,15.59,0,0,1,169,78a15.37,15.37,0,0,1-1.84,7.68,13,13,0,0,1-5,5.06A14.1,14.1,0,0,1,155.07,92.55Zm0-4a8.89,8.89,0,0,0,4.47-1.18,8.73,8.73,0,0,0,3.36-3.52A11.94,11.94,0,0,0,164.18,78a12.22,12.22,0,0,0-1.25-5.82,8.6,8.6,0,0,0-3.33-3.52,8.82,8.82,0,0,0-4.41-1.17,8.94,8.94,0,0,0-4.48,1.17,8.77,8.77,0,0,0-3.35,3.52A12,12,0,0,0,146.07,78a11.94,11.94,0,0,0,1.29,5.81,8.8,8.8,0,0,0,3.33,3.52A8.67,8.67,0,0,0,155.07,88.53Z"/><path class="cls-2" d="M195.82,91.88V51.63h4.7V91.88Z"/><path class="cls-2" d="M241.09,92.55a13.52,13.52,0,0,1-7.23-1.9,12.9,12.9,0,0,1-4.81-5.2A16,16,0,0,1,227.34,78a15.64,15.64,0,0,1,1.74-7.46,13,13,0,0,1,4.8-5.14,13.69,13.69,0,0,1,7.27-1.88,12.73,12.73,0,0,1,6,1.4,10.11,10.11,0,0,1,4.08,3.91V51.63H256V91.88h-4.25l-.44-4.58a13,13,0,0,1-3.86,3.63A11.45,11.45,0,0,1,241.09,92.55Zm.51-4.08a9.33,9.33,0,0,0,4.94-1.31,9,9,0,0,0,3.36-3.67,13.09,13.09,0,0,0,0-10.95,8.88,8.88,0,0,0-3.36-3.66,9.24,9.24,0,0,0-4.94-1.32,9.14,9.14,0,0,0-4.89,1.32,8.88,8.88,0,0,0-3.36,3.66,13.09,13.09,0,0,0,0,10.95,9,9,0,0,0,3.36,3.67A9.22,9.22,0,0,0,241.6,88.47Z"/><path class="cls-2" d="M296.54,92.55a13.93,13.93,0,0,1-7-1.79,12.89,12.89,0,0,1-4.95-5.06A15.58,15.58,0,0,1,282.73,78a15.38,15.38,0,0,1,1.85-7.69,13.08,13.08,0,0,1,5-5.06,14.13,14.13,0,0,1,7.07-1.79,13.93,13.93,0,0,1,7,1.79,13,13,0,0,1,4.95,5.06A15.59,15.59,0,0,1,310.46,78a15.37,15.37,0,0,1-1.85,7.68,13.08,13.08,0,0,1-5,5.06A14.13,14.13,0,0,1,296.54,92.55Zm0-4A8.94,8.94,0,0,0,301,87.35a8.64,8.64,0,0,0,3.35-3.52A11.94,11.94,0,0,0,305.65,78a12.22,12.22,0,0,0-1.26-5.82,8.58,8.58,0,0,0-3.32-3.52,8.83,8.83,0,0,0-4.42-1.17,8.93,8.93,0,0,0-4.47,1.17,8.71,8.71,0,0,0-3.35,3.52A12,12,0,0,0,287.54,78a11.94,11.94,0,0,0,1.29,5.81,8.61,8.61,0,0,0,7.71,4.7Z"/><path class="cls-3" d="M349.36,91.88l-14.7-39.13h5.09L352.1,86.9l12.46-34.15h5l-14.7,39.13Z"/><path class="cls-3" d="M397.76,58a3.16,3.16,0,0,1-3.24-3.25,3,3,0,0,1,.92-2.23,3.2,3.2,0,0,1,2.32-.9,3.23,3.23,0,0,1,2.3.9,3,3,0,0,1,.95,2.23,3.09,3.09,0,0,1-.95,2.32A3.18,3.18,0,0,1,397.76,58Zm-2.34,33.87V64.15h4.69V91.88Z"/><path class="cls-3" d="M428.56,91.88V64.15h4.25l.28,5A10.07,10.07,0,0,1,437,65a10.88,10.88,0,0,1,5.7-1.51,10.53,10.53,0,0,1,7.85,3q2.94,3,2.93,9.2V91.88h-4.69V76.17q0-8.65-7.16-8.66a7.73,7.73,0,0,0-5.95,2.6q-2.37,2.6-2.37,7.4V91.88Z"/></svg>
