<svg id="Layer_1" data-name="Layer 1" xmlns="http://www.w3.org/2000/svg" viewBox="0 0 546.96 141.73"><defs><style>.cls-1{fill:#fff;}</style></defs><path class="cls-1" d="M6.78,94V39.07h7.68L34.22,77.34,53.83,39.07h7.76V94H55V50.83L36.65,86.12H31.71L13.36,50.91V94Z"/><path class="cls-1" d="M119,94.9a19.59,19.59,0,0,1-9.88-2.51,18.16,18.16,0,0,1-6.94-7.1,21.81,21.81,0,0,1-2.54-10.78,21.63,21.63,0,0,1,2.58-10.78,18.42,18.42,0,0,1,7-7.1,19.79,19.79,0,0,1,9.92-2.51A19.59,19.59,0,0,1,129,56.63a18.16,18.16,0,0,1,6.94,7.1,21.84,21.84,0,0,1,2.55,10.78,21.5,21.5,0,0,1-2.59,10.78,18.26,18.26,0,0,1-7,7.1A19.86,19.86,0,0,1,119,94.9Zm0-5.64a12.51,12.51,0,0,0,6.28-1.65,12.33,12.33,0,0,0,4.7-4.94,16.75,16.75,0,0,0,1.81-8.16A17,17,0,0,0,130,66.36a11.93,11.93,0,0,0-4.66-4.94,12.61,12.61,0,0,0-12.47,0,12.16,12.16,0,0,0-4.71,4.94,16.79,16.79,0,0,0-1.8,8.15,16.86,16.86,0,0,0,1.8,8.16,12.4,12.4,0,0,0,4.67,4.94A12.12,12.12,0,0,0,119,89.26Z"/><path class="cls-1" d="M176.16,94V37.5h6.59V94Z"/><path class="cls-1" d="M239.68,94.9a19.09,19.09,0,0,1-10.15-2.66,18.22,18.22,0,0,1-6.75-7.3,22.6,22.6,0,0,1-2.39-10.51A22,22,0,0,1,222.82,64a18.32,18.32,0,0,1,6.75-7.21,19.2,19.2,0,0,1,10.19-2.63,17.85,17.85,0,0,1,8.47,2A14.14,14.14,0,0,1,254,61.57V37.5h6.59V94h-6L254,87.53a18.14,18.14,0,0,1-5.41,5.1A16.08,16.08,0,0,1,239.68,94.9Zm.71-5.72a13,13,0,0,0,6.94-1.85A12.55,12.55,0,0,0,252,82.2a16.6,16.6,0,0,0,1.69-7.69A16.53,16.53,0,0,0,252,66.83a12.57,12.57,0,0,0-4.7-5.14,13,13,0,0,0-6.94-1.84,12.88,12.88,0,0,0-6.86,1.84,12.53,12.53,0,0,0-4.71,5.14,16.65,16.65,0,0,0-1.68,7.68,16.72,16.72,0,0,0,1.68,7.69,12.5,12.5,0,0,0,4.71,5.13A12.89,12.89,0,0,0,240.39,89.18Z"/><path class="cls-1" d="M317.47,94.9a19.59,19.59,0,0,1-9.88-2.51,18.09,18.09,0,0,1-6.94-7.1,21.81,21.81,0,0,1-2.54-10.78,21.63,21.63,0,0,1,2.58-10.78,18.42,18.42,0,0,1,7-7.1,19.79,19.79,0,0,1,9.92-2.51,19.59,19.59,0,0,1,9.88,2.51,18.16,18.16,0,0,1,6.94,7.1A21.84,21.84,0,0,1,337,74.51a21.5,21.5,0,0,1-2.59,10.78,18.26,18.26,0,0,1-7,7.1A19.86,19.86,0,0,1,317.47,94.9Zm0-5.64a12.51,12.51,0,0,0,6.28-1.65,12.33,12.33,0,0,0,4.7-4.94,16.75,16.75,0,0,0,1.81-8.16,17,17,0,0,0-1.77-8.15,11.93,11.93,0,0,0-4.66-4.94,12.61,12.61,0,0,0-12.47,0,12.16,12.16,0,0,0-4.71,4.94,16.79,16.79,0,0,0-1.8,8.15,16.86,16.86,0,0,0,1.8,8.16,12.4,12.4,0,0,0,4.67,4.94A12.12,12.12,0,0,0,317.47,89.26Z"/><path class="cls-1" d="M391.58,94,371,39.07h7.13L395.42,87l17.49-47.91h7L399.27,94Z"/><path class="cls-1" d="M459.49,46.44a4.44,4.44,0,0,1-4.55-4.55,4.21,4.21,0,0,1,1.3-3.14,4.51,4.51,0,0,1,3.25-1.25,4.55,4.55,0,0,1,3.22,1.25A4.13,4.13,0,0,1,464,41.89a4.32,4.32,0,0,1-1.33,3.25A4.43,4.43,0,0,1,459.49,46.44ZM456.2,94V55.06h6.59V94Z"/><path class="cls-1" d="M502.7,94V55.06h6l.39,7a14.16,14.16,0,0,1,5.42-5.8,15.25,15.25,0,0,1,8-2.12q6.9,0,11,4.2t4.12,12.9V94H531v-22q0-12.15-10-12.15a10.82,10.82,0,0,0-8.35,3.65q-3.33,3.64-3.33,10.39V94Z"/></svg>
